<svg width="336" height="496" viewBox="0 0 336 496" fill="none" xmlns="http://www.w3.org/2000/svg">
<path d="M167.946 0C75.0262 0 0 75.2072 0 167.97C0 197.138 7.44304 224.582 20.4906 248.493L167.954 495.702L315.417 248.493C328.464 224.582 335.907 197.138 335.907 167.97C335.907 75.2035 260.879 0 167.961 0H167.946ZM166.078 97.6169C166.702 97.6011 167.319 97.6169 167.946 97.6169C208.086 97.6169 240.624 130.201 240.624 170.395C240.624 210.589 208.085 243.172 167.946 243.172C127.807 243.172 95.2683 210.589 95.2683 170.395C95.2683 130.829 126.806 98.6139 166.078 97.6169Z" fill="#E52626"/>
</svg>
